# xmcd
#
# Track frame offsets:
#	150
#	20101
#	37722
#	53648
#	74638
#	89026
#	110897
#	125104
#	140589
#	152793
#	165485
#	179469
#	196886
#	217461
#	240136
#
# Disc length: 3429 seconds
#
# Revision: 1
# Processed by: cddbd v1.5.2PL0 Copyright (c) Steve Scherf et al.
# Submitted via: audiograbber 1.83.01
#
DISCID=e20d630f
DTITLE=Various Artist - Country Gospel Favoritter CD 2
DYEAR=2007
DGENRE=Country Gospel
TTITLE0=Evie - O store Gud
TTITLE1=Curt and Roland - Keep your mighty hand on me
TTITLE2=Guttane - Det finns intet her i verden
TTITLE3=Synnøve Aanensen - Han er med deg på høyden (God on the Mountain)
TTITLE4=Anita Hernes - Let's all go down to the river, I thank you, Jesus, I ca
TTITLE4=me to praise the Lord
TTITLE5=Stanley Salvesen - The old rugged cross
TTITLE6=Gerd Solveig Hansen - Du kom til meg
TTITLE7=Helge Johannesen - Han skal åpne perleporten (instrumental)
TTITLE8=Edith Aateigen - Fyll mitt beger, Gud
TTITLE9=Sødalstrioen - Bønnens makt
TTITLE10=Ingamay Hörnberg - Ljuvligt och kärleksfullt (Softly and Tenderly)
TTITLE11=Marit and Irene - Å hvor Gud har vært god
TTITLE12=Per Tveten - Se etter meg
TTITLE13=Country Gospel Team - Kom hjem Suppertime)
TTITLE14=Rikke Floug Tvedt - If we never meet again
EXTD=P and C 2007 Lynor AS 0701/2
EXTT0=
EXTT1=
EXTT2=
EXTT3=
EXTT4=
EXTT5=
EXTT6=
EXTT7=
EXTT8=
EXTT9=
EXTT10=
EXTT11=
EXTT12=
EXTT13=
EXTT14=
PLAYORDER=
